<svg id="Lager_1" xmlns="http://www.w3.org/2000/svg" viewBox="0 0 2410.1 279"><style>.st0{fill:#0058a3}.st1{fill:#ffdb00}.st2{enable-background:new}.st3{fill:#2b2b2b}</style><title>IKEA_2018_sRGB_25</title><path class="st0" d="M686.9 279H0V0h687l-.1 279z"/><path class="st1" d="M13.4 139.5c0 67.4 138.3 123.5 330.1 123.5s330-56 330-123.5S535.2 16 343.5 16 13.4 72.1 13.4 139.5z"/><path class="st0" d="M235.9 87.2c-1.5 3-1.5 5.9-1.5 8.9v37.5s20.1-26.1 24.7-32.3c3.5-4.6 7.8-11.1 7.8-14.1h65.6c-4.5 3-9.5 8.4-13.6 13.4-3.6 4.4-24 29.3-24 29.3s30.3 46.1 34.2 52c2.2 3.2 4.6 6.2 7.4 8.9H261c0-3-2.9-9.1-6.1-13.9s-20.5-31.1-20.5-31.1v36.1c0 3 0 5.9 1.5 8.9H173c1.5-3 1.5-5.9 1.5-8.9V96.1c0-3 0-5.9-1.5-8.9h62.9zm232.9 0H347.4c1.5 3 1.5 5.9 1.5 8.9v85.8c0 3 0 5.9-1.5 8.9h121.4v-28.7c-3 1.5-5.9 1.5-8.9 1.5h-51.1V150h49.1v-21.9h-49.1v-13.7h51.1c3 0 5.9 0 8.9 1.4V87.2zM637 181.9c1 3.3 2.7 6.3 4.9 8.9h-65.8c.3-3-.8-5.9-2-8.9 0 0-1-2.4-2.4-5.9l-.6-1.5h-37.9l-.6 1.6s-1.1 2.9-2.1 5.9-2.1 5.9-1.7 8.9h-51.9c2.1-2.6 3.7-5.6 4.7-8.9l31.1-85.8c1.1-3 2.2-5.9 1.8-8.9h87.7c-.8 3 .8 5.9 1.9 8.9 2.6 6.5 30.7 79.9 32.9 85.7m-74.2-29.3l-9.2-24c-.8-2.2-1.5-4.5-2-6.8-.4 2.3-1 4.6-1.8 6.8-.3 1-4.2 11.5-8.7 24h21.7zM141.7 96.1c0-3 0-5.9 1.5-8.9H74.8c1.5 3 1.5 5.9 1.5 8.9v85.8c0 3 0 5.9-1.5 8.9h68.4c-1.5-3-1.5-5.9-1.5-8.9V96.1zm474.3-.7c-.2 7.5 5.7 13.8 13.3 14 7.5.2 13.8-5.7 14-13.3v-.7c.1-7.4-5.7-13.5-13.1-13.6h-.5c-7.3-.3-13.4 5.4-13.6 12.7-.2.3-.2.6-.1.9m24.5 0c.2 6-4.6 11.1-10.6 11.2-6 .2-11.1-4.6-11.2-10.6v-.7c-.2-5.8 4.3-10.7 10.1-10.9h.8c5.9-.1 10.8 4.6 10.9 10.5v.5m-4.2 8.2h-2.7l-3.2-5.8h-3.5v5.8h-2.4V87.2h6.1c2.9.1 5.1 2.4 5.1 5.3 0 2-1.1 3.8-2.9 4.8l3.5 6.3zm-6.1-8.2c1.6.1 3-1.1 3-2.7s-1.1-3-2.7-3h-3.6v5.8h3.3"/><path class="st2 st3" d="M891.8 164.2c0 9-3.3 16-9.8 21-6.5 5-15.3 7.5-26.4 7.5-5.7 0-10.9-.4-15.8-1.3-4.8-.9-8.9-2-12.1-3.6v-12.2c3.4 1.5 7.7 2.9 12.7 4.1 5.1 1.2 10.3 1.8 15.7 1.8 7.6 0 13.3-1.5 17.1-4.4 3.8-2.9 5.8-6.9 5.8-11.9 0-3.3-.7-6.1-2.1-8.4-1.4-2.3-3.9-4.4-7.3-6.3-3.5-1.9-8.3-4-14.4-6.2-8.6-3.1-15.1-7-19.5-11.5s-6.6-10.8-6.6-18.6c0-5.4 1.4-10 4.1-13.9 2.7-3.8 6.6-6.8 11.4-8.9 4.9-2.1 10.5-3.1 16.8-3.1 5.6 0 10.7.5 15.3 1.6 4.6 1 8.9 2.4 12.6 4.1l-4 10.9c-3.5-1.5-7.3-2.8-11.4-3.8-4.1-1-8.4-1.6-12.9-1.6-6.3 0-11.1 1.4-14.4 4.1-3.2 2.7-4.8 6.3-4.8 10.7 0 3.4.7 6.3 2.1 8.5 1.4 2.3 3.7 4.3 7 6.1 3.2 1.8 7.6 3.7 13.1 5.8 6 2.2 11 4.5 15.1 7s7.2 5.5 9.4 9c2.3 3.7 3.3 8.1 3.3 13.5zm85-11.1c0 12.6-3.2 22.4-9.6 29.3-6.4 6.9-15 10.4-25.9 10.4-6.7 0-12.7-1.5-18-4.6-5.3-3.1-9.4-7.6-12.4-13.5s-4.5-13.1-4.5-21.5c0-12.6 3.2-22.3 9.5-29.1 6.3-6.8 15-10.2 25.9-10.2 6.9 0 13 1.5 18.3 4.6 5.3 3.1 9.4 7.5 12.4 13.4s4.3 12.7 4.3 21.2zm-57.5 0c0 9 1.8 16.1 5.3 21.4 3.6 5.3 9.2 7.9 17 7.9 7.7 0 13.3-2.6 16.9-7.9 3.6-5.3 5.4-12.4 5.4-21.4 0-9-1.8-16.1-5.4-21.2-3.6-5.1-9.3-7.7-17.1-7.7-7.8 0-13.4 2.6-16.9 7.7-3.5 5.1-5.2 12.2-5.2 21.2zm107.8 39.6c-6.7 0-12.7-1.4-18-4.1s-9.4-7-12.4-12.8c-3-5.8-4.5-13.2-4.5-22.2 0-9.4 1.6-17 4.7-22.9 3.1-5.9 7.4-10.2 12.7-12.9 5.4-2.7 11.4-4.1 18.3-4.1 3.9 0 7.6.4 11.2 1.2 3.6.8 6.5 1.8 8.8 2.9l-3.8 10.4c-2.3-.9-4.9-1.7-8-2.4-3-.8-5.9-1.1-8.5-1.1-15 0-22.5 9.6-22.5 28.9 0 9.2 1.8 16.2 5.5 21.1 3.6 4.9 9.1 7.3 16.3 7.3 4.2 0 7.8-.4 11-1.3s6.1-1.9 8.7-3.1v11.1c-2.6 1.3-5.4 2.3-8.5 3.1-2.9.6-6.6.9-11 .9zm44.1-106.1c1.9 0 3.6.6 5 1.9 1.5 1.3 2.2 3.3 2.2 6s-.7 4.6-2.2 6c-1.5 1.3-3.2 2-5 2-2.1 0-3.8-.7-5.3-2-1.4-1.3-2.1-3.3-2.1-6s.7-4.8 2.1-6c1.5-1.3 3.2-1.9 5.3-1.9zm6.1 28.5v76.2h-12.5v-76.2h12.5zm53-1.3c9.3 0 16.2 2 20.6 6.1 4.5 4.1 6.7 10.6 6.7 19.5v51.9h-9.1l-2.4-10.8h-.6c-3.3 4.2-6.8 7.2-10.4 9.2-3.6 2-8.7 3-15.1 3-6.9 0-12.6-1.8-17.2-5.5-4.5-3.6-6.8-9.4-6.8-17.1 0-7.6 3-13.4 9-17.6 6-4.1 15.2-6.4 27.6-6.8l12.9-.4v-4.5c0-6.3-1.4-10.8-4.1-13.2-2.7-2.5-6.6-3.7-11.7-3.7-4 0-7.8.6-11.4 1.8-3.6 1.2-7 2.5-10.1 4.1l-3.8-9.4c3.3-1.8 7.2-3.3 11.8-4.6 4.5-1.3 9.2-2 14.1-2zm14.9 40.3l-11.2.4c-9.5.4-16 1.9-19.7 4.5-3.6 2.7-5.5 6.4-5.5 11.2 0 4.3 1.3 7.4 3.9 9.4 2.6 2 5.9 3 10 3 6.4 0 11.8-1.8 16.1-5.3s6.4-9 6.4-16.4v-6.8zm48.5 37.2h-12.5v-108h12.5v108zm119.5 0h-56.7V89.8h56.7V101h-43.9v31.7h41.4v11.1h-41.4V180h43.9v11.3zm57.3-77.6c9.1 0 16 2.2 20.6 6.6 4.6 4.4 7 11.5 7 21.4v49.6h-12.4v-48.7c0-12.2-5.7-18.3-17.1-18.3-8.4 0-14.3 2.4-17.5 7.1-3.2 4.7-4.8 11.6-4.8 20.5v39.5h-12.5v-76.2h10.1l1.8 10.4h.7c2.5-4 5.9-6.9 10.2-8.9 4.5-2 9.1-3 13.9-3zm76.6 68.8c1.9 0 3.8-.2 5.8-.5s3.6-.7 4.8-1.1v9.5c-1.3.7-3.2 1.2-5.7 1.6-2.5.4-4.8.6-7.1.6-4 0-7.7-.7-11-2.1-3.4-1.4-6.1-3.8-8.2-7.2-2.1-3.4-3.1-8.2-3.1-14.4v-44.3h-10.8v-6l10.9-5 5-16.2h7.4v17.5h22v9.7h-22v44.1c0 4.6 1.1 8.1 3.3 10.3 2.3 2.4 5.2 3.5 8.7 3.5zm61.4-68.8c1.4 0 3 .1 4.6.2 1.7.1 3.1.4 4.3.6l-1.6 11.5c-1.2-.3-2.6-.5-4.1-.7-1.5-.2-2.9-.3-4.2-.3-3.9 0-7.5 1.1-10.9 3.2-3.4 2.1-6.1 5.1-8.2 9-2 3.8-3.1 8.3-3.1 13.4v40.6H1473V115h10.2l1.4 13.9h.6c2.5-4.2 5.6-7.8 9.5-10.8 3.9-2.9 8.5-4.4 13.8-4.4zm49.7 0c6.5 0 12.2 1.4 16.8 4.3 4.7 2.8 8.3 6.8 10.8 12s3.8 11.2 3.8 18.1v7.5h-52.2c.2 8.6 2.4 15.2 6.6 19.7 4.2 4.5 10.1 6.8 17.7 6.8 4.8 0 9.1-.4 12.9-1.3 3.7-.9 7.6-2.2 11.6-3.9v10.9c-3.9 1.7-7.7 3-11.5 3.8-3.8.8-8.3 1.2-13.5 1.2-7.2 0-13.6-1.5-19.1-4.4-5.5-2.9-9.9-7.3-12.9-13.1-3.1-5.8-4.6-13-4.6-21.4 0-8.3 1.4-15.5 4.2-21.5 2.8-6 6.7-10.6 11.8-13.8 5-3.3 10.9-4.9 17.6-4.9zm-.1 10.2c-6 0-10.7 1.9-14.1 5.8-3.5 3.8-5.5 9.2-6.2 16h38.8c-.1-6.4-1.6-11.7-4.5-15.7-3-4.1-7.6-6.1-14-6.1zm87.1-10.2c9.4 0 16.9 3.3 22.7 9.8 5.7 6.5 8.6 16.4 8.6 29.6 0 13-2.9 22.8-8.6 29.6-5.7 6.7-13.3 10.1-22.8 10.1-5.9 0-10.7-1.1-14.6-3.3-3.8-2.2-6.8-4.8-9-7.7h-.9c.2 1.6.4 3.6.6 6.1.2 2.5.3 4.6.3 6.4v31.3H1609V115.1h10.2l1.7 10.4h.6c2.3-3.3 5.3-6.1 9-8.4s8.6-3.4 14.7-3.4zm-2.2 10.5c-7.8 0-13.2 2.2-16.4 6.5-3.2 4.4-4.9 11-5 19.9v2.4c0 9.4 1.5 16.6 4.6 21.7 3.1 5.1 8.8 7.6 17.1 7.6 4.6 0 8.5-1.3 11.4-3.8s5.2-6 6.7-10.4 2.2-9.5 2.2-15.1c0-8.7-1.7-15.7-5-20.9-3.5-5.3-8.6-7.9-15.6-7.9zm88.9-10.5c1.4 0 3 .1 4.6.2 1.7.1 3.1.4 4.3.6l-1.6 11.5c-1.2-.3-2.6-.5-4.1-.7-1.5-.2-2.9-.3-4.2-.3-3.9 0-7.5 1.1-10.9 3.2-3.4 2.1-6.1 5.1-8.2 9-2 3.8-3.1 8.3-3.1 13.4v40.6h-12.5V115h10.2l1.4 13.9h.6c2.5-4.2 5.6-7.8 9.5-10.8 4.1-2.9 8.7-4.4 14-4.4zm49.8 0c6.5 0 12.2 1.4 16.8 4.3 4.7 2.8 8.3 6.8 10.8 12s3.8 11.2 3.8 18.1v7.5h-52.2c.2 8.6 2.4 15.2 6.6 19.7 4.2 4.5 10.1 6.8 17.7 6.8 4.8 0 9.1-.4 12.9-1.3 3.7-.9 7.6-2.2 11.6-3.9v10.9c-3.9 1.7-7.7 3-11.5 3.8-3.8.8-8.3 1.2-13.5 1.2-7.2 0-13.6-1.5-19.1-4.4-5.5-2.9-9.9-7.3-12.9-13.1-3.1-5.8-4.6-13-4.6-21.4 0-8.3 1.4-15.5 4.2-21.5 2.8-6 6.7-10.6 11.8-13.8 4.9-3.3 10.8-4.9 17.6-4.9zm-.2 10.2c-6 0-10.7 1.9-14.1 5.8-3.5 3.8-5.5 9.2-6.2 16h38.8c-.1-6.4-1.6-11.7-4.5-15.7-3-4.1-7.6-6.1-14-6.1zm87.6-10.2c9.1 0 16 2.2 20.6 6.6 4.6 4.4 7 11.5 7 21.4v49.6h-12.4v-48.7c0-12.2-5.7-18.3-17.1-18.3-8.4 0-14.3 2.4-17.5 7.1-3.2 4.7-4.8 11.6-4.8 20.5v39.5h-12.5v-76.2h10.1l1.8 10.4h.7c2.5-4 5.9-6.9 10.2-8.9 4.4-2 9-3 13.9-3zm80.5 0c6.5 0 12.2 1.4 16.8 4.3 4.7 2.8 8.3 6.8 10.8 12s3.8 11.2 3.8 18.1v7.5h-52.2c.2 8.6 2.4 15.2 6.6 19.7 4.2 4.5 10.1 6.8 17.7 6.8 4.8 0 9.1-.4 12.9-1.3 3.7-.9 7.6-2.2 11.6-3.9v10.9c-3.9 1.7-7.7 3-11.5 3.8-3.8.8-8.3 1.2-13.5 1.2-7.2 0-13.6-1.5-19.1-4.4-5.5-2.9-9.9-7.3-12.9-13.1-3.1-5.8-4.6-13-4.6-21.4 0-8.3 1.4-15.5 4.2-21.5 2.8-6 6.7-10.6 11.8-13.8 5-3.3 10.9-4.9 17.6-4.9zm-.1 10.2c-6 0-10.7 1.9-14.1 5.8-3.5 3.8-5.5 9.2-6.2 16h38.8c-.1-6.4-1.6-11.7-4.5-15.7-3-4.1-7.6-6.1-14-6.1zm114.6-8.8v76.2h-10.2l-1.8-10.1h-.6c-2.5 4-5.9 6.9-10.2 8.7-4.4 1.8-9 2.8-13.9 2.8-9.2 0-16.1-2.2-20.8-6.6-4.6-4.4-7-11.4-7-21.1v-49.9h12.6v49c0 12.1 5.6 18.2 16.9 18.2 8.4 0 14.3-2.4 17.6-7.1 3.3-4.7 4.9-11.6 4.9-20.5V115h12.5zm59.6-1.4c1.4 0 3 .1 4.6.2 1.7.1 3.1.4 4.3.6L2131 126c-1.2-.3-2.6-.5-4.1-.7-1.5-.2-2.9-.3-4.2-.3-3.9 0-7.5 1.1-10.9 3.2-3.4 2.1-6.1 5.1-8.2 9-2 3.8-3.1 8.3-3.1 13.4v40.6H2088V115h10.2l1.4 13.9h.6c2.5-4.2 5.6-7.8 9.5-10.8 4.1-2.9 8.7-4.4 14-4.4zm72.8 56.6c0 7.4-2.7 13-8.2 16.8-5.5 3.8-12.9 5.7-22.2 5.7-5.3 0-9.9-.4-13.7-1.3-3.8-.9-7.2-2-10.2-3.6v-11.4c3 1.5 6.7 2.9 11 4.2 4.3 1.3 8.7 1.9 13.1 1.9 6.3 0 10.9-1 13.8-3.1 2.8-2 4.3-4.8 4.3-8.2 0-1.9-.5-3.6-1.6-5.1-1-1.5-2.9-3-5.6-4.5-2.7-1.5-6.6-3.2-11.6-5.1-4.9-1.9-9.1-3.8-12.6-5.7-3.5-1.9-6.2-4.2-8.1-6.8-1.9-2.7-2.8-6.1-2.8-10.2 0-6.4 2.6-11.4 7.9-14.9 5.3-3.5 12.2-5.3 20.7-5.3 4.6 0 9 .5 13 1.4 4 .9 7.8 2.2 11.3 3.8l-4.3 9.9c-3.2-1.3-6.6-2.5-10.1-3.4-3.5-.9-7.1-1.4-10.8-1.4-5.1 0-9 .8-11.7 2.5-2.7 1.7-4.1 3.9-4.1 6.8 0 2.1.6 3.9 1.8 5.3 1.2 1.5 3.3 2.9 6.2 4.3 2.9 1.4 6.8 3 11.6 4.9 4.8 1.8 9 3.6 12.4 5.5 3.4 1.9 6 4.2 7.8 6.9 1.8 2.6 2.7 6 2.7 10.1zm31-87V115c0 3.8-.2 7.3-.7 10.7h.9c2.5-3.9 5.8-6.8 10-8.8 4.2-2 8.8-3 13.7-3 9.3 0 16.2 2.2 20.9 6.6 4.6 4.4 7 11.5 7 21.2v49.6h-12.4v-48.7c0-12.2-5.7-18.3-17.1-18.3-8.5 0-14.4 2.4-17.6 7.2-3.2 4.8-4.8 11.6-4.8 20.5v39.4H2215v-108h12.5zm81.7 3.3c1.9 0 3.6.6 5 1.9 1.5 1.3 2.2 3.3 2.2 6s-.7 4.6-2.2 6c-1.5 1.3-3.2 2-5 2-2.1 0-3.8-.7-5.3-2-1.4-1.3-2.1-3.3-2.1-6s.7-4.8 2.1-6c1.5-1.3 3.2-1.9 5.3-1.9zm6.1 28.5v76.2h-12.5v-76.2h12.5zm60.4-1.4c9.4 0 16.9 3.3 22.7 9.8 5.7 6.5 8.6 16.4 8.6 29.6 0 13-2.9 22.8-8.6 29.6-5.7 6.7-13.3 10.1-22.8 10.1-5.9 0-10.7-1.1-14.6-3.3-3.8-2.2-6.8-4.8-9-7.7h-.9c.2 1.6.4 3.6.6 6.1.2 2.5.3 4.6.3 6.4v31.3h-12.5V115.1h10.2l1.7 10.4h.6c2.3-3.3 5.3-6.1 9-8.4s8.6-3.4 14.7-3.4zm-2.2 10.5c-7.8 0-13.2 2.2-16.4 6.5-3.2 4.4-4.9 11-5 19.9v2.4c0 9.4 1.5 16.6 4.6 21.7 3.1 5.1 8.8 7.6 17.1 7.6 4.6 0 8.5-1.3 11.4-3.8s5.2-6 6.7-10.4 2.2-9.5 2.2-15.1c0-8.7-1.7-15.7-5-20.9-3.5-5.3-8.6-7.9-15.6-7.9z"/></svg>